<svg width="28" height="28" viewBox="0 0 28 28" fill="none" xmlns="http://www.w3.org/2000/svg">
<path d="M20.582 24.0122C20.582 21.5861 19.6183 19.2595 17.9028 17.544C16.1873 15.8285 13.8606 14.8647 11.4346 14.8647C9.00851 14.8647 6.68182 15.8285 4.96634 17.544C3.25086 19.2595 2.28711 21.5861 2.28711 24.0122" stroke="white" stroke-width="2.28686" stroke-linecap="round" stroke-linejoin="round"/>
<path d="M11.4359 14.865C14.5934 14.865 17.1531 12.3053 17.1531 9.14783C17.1531 5.99032 14.5934 3.43066 11.4359 3.43066C8.27841 3.43066 5.71875 5.99032 5.71875 9.14783C5.71875 12.3053 8.27841 14.865 11.4359 14.865Z" stroke="white" stroke-width="2.28686" stroke-linecap="round" stroke-linejoin="round"/>
<path d="M25.1566 22.8689C25.1566 19.0155 22.8698 15.4366 20.5829 13.7214C21.3346 13.1575 21.9357 12.4169 22.333 11.5652C22.7303 10.7136 22.9115 9.77714 22.8606 8.83876C22.8098 7.90038 22.5284 6.98901 22.0413 6.18531C21.5543 5.38161 20.8766 4.71035 20.0684 4.23096" stroke="white" stroke-width="2.28686" stroke-linecap="round" stroke-linejoin="round"/>
</svg>
