<svg width="28" height="28" viewBox="0 0 28 28" fill="none" xmlns="http://www.w3.org/2000/svg">
<path d="M20.584 9.14697V6.86011C20.584 6.25359 20.343 5.67192 19.9142 5.24305C19.4853 4.81418 18.9036 4.57324 18.2971 4.57324H4.57593C3.96941 4.57324 3.38774 4.81418 2.95887 5.24305C2.53 5.67192 2.28906 6.25359 2.28906 6.86011V14.8641C2.28906 15.4706 2.53 16.0523 2.95887 16.4812C3.38774 16.9101 3.96941 17.151 4.57593 17.151H13.7234" stroke="white" stroke-width="2.28686" stroke-linecap="round" stroke-linejoin="round"/>
<path d="M11.4355 21.7253V17.1973V20.7991" stroke="white" stroke-width="2.28686" stroke-linecap="round" stroke-linejoin="round"/>
<path d="M8.00391 21.7251H13.7211" stroke="white" stroke-width="2.28686" stroke-linecap="round" stroke-linejoin="round"/>
<path d="M22.8687 13.7212H20.5818C19.3188 13.7212 18.2949 14.7451 18.2949 16.0081V22.8687C18.2949 24.1317 19.3188 25.1555 20.5818 25.1555H22.8687C24.1317 25.1555 25.1555 24.1317 25.1555 22.8687V16.0081C25.1555 14.7451 24.1317 13.7212 22.8687 13.7212Z" stroke="white" stroke-width="2.28686" stroke-linecap="round" stroke-linejoin="round"/>
</svg>
