<svg width="14" height="14" viewBox="0 0 14 14" fill="none" xmlns="http://www.w3.org/2000/svg">
<path d="M5.71575 8.9159C5.6644 8.71684 5.56065 8.53518 5.41528 8.38981C5.26992 8.24445 5.08826 8.14069 4.8892 8.08934L1.36038 7.17938C1.30017 7.1623 1.24718 7.12603 1.20945 7.0761C1.17172 7.02617 1.15131 6.9653 1.15131 6.90271C1.15131 6.84013 1.17172 6.77926 1.20945 6.72932C1.24718 6.67939 1.30017 6.64313 1.36038 6.62605L4.8892 5.71551C5.08819 5.66421 5.2698 5.56054 5.41516 5.41528C5.56052 5.27003 5.66431 5.08848 5.71575 4.88953L6.62571 1.36071C6.64263 1.30027 6.67885 1.24702 6.72886 1.20908C6.77886 1.17115 6.8399 1.15062 6.90267 1.15062C6.96543 1.15062 7.02648 1.17115 7.07648 1.20908C7.12649 1.24702 7.16271 1.30027 7.17963 1.36071L8.08901 4.88953C8.14036 5.08859 8.24412 5.27025 8.38948 5.41562C8.53485 5.56098 8.71651 5.66473 8.91557 5.71609L12.4444 6.62547C12.5051 6.64221 12.5586 6.67839 12.5967 6.72847C12.6349 6.77856 12.6555 6.83977 12.6555 6.90271C12.6555 6.96566 12.6349 7.02687 12.5967 7.07695C12.5586 7.12704 12.5051 7.16322 12.4444 7.17996L8.91557 8.08934C8.71651 8.14069 8.53485 8.24445 8.38948 8.38981C8.24412 8.53518 8.14036 8.71684 8.08901 8.9159L7.17905 12.4447C7.16214 12.5052 7.12591 12.5584 7.07591 12.5963C7.0259 12.6343 6.96486 12.6548 6.90209 12.6548C6.83933 12.6548 6.77829 12.6343 6.72828 12.5963C6.67828 12.5584 6.64205 12.5052 6.62514 12.4447L5.71575 8.9159Z" stroke="#E89852" stroke-width="1.15039" stroke-linecap="round" stroke-linejoin="round"/>
<path d="M11.5048 1.72626V4.02704" stroke="#E89852" stroke-width="1.15039" stroke-linecap="round" stroke-linejoin="round"/>
<path d="M12.6543 2.87552H10.3535" stroke="#E89852" stroke-width="1.15039" stroke-linecap="round" stroke-linejoin="round"/>
<path d="M2.30255 9.77853V10.9289" stroke="#E89852" stroke-width="1.15039" stroke-linecap="round" stroke-linejoin="round"/>
<path d="M2.87598 10.3528H1.72559" stroke="#E89852" stroke-width="1.15039" stroke-linecap="round" stroke-linejoin="round"/>
</svg>
