<svg width="34" height="24" viewBox="0 0 34 24" fill="none" xmlns="http://www.w3.org/2000/svg">
<path d="M9.60017 12.0002C9.60017 13.3257 8.52564 14.4003 7.20013 14.4003C5.87462 14.4003 4.80009 13.3257 4.80009 12.0002C4.80009 10.6747 5.87462 9.60017 7.20013 9.60017C8.52564 9.60017 9.60017 10.6747 9.60017 12.0002Z" fill="#1A1A1A"/>
<path d="M4.80009 12.0002C4.80009 13.3257 3.72555 14.4003 2.40004 14.4003C1.07454 14.4003 0 13.3257 0 12.0002C0 10.6747 1.07454 9.60017 2.40004 9.60017C3.72555 9.60017 4.80009 10.6747 4.80009 12.0002Z" fill="#1A1A1A"/>
<path d="M9.60017 7.20013C9.60017 8.52564 8.52564 9.60017 7.20013 9.60017C5.87462 9.60017 4.80009 8.52564 4.80009 7.20013C4.80009 5.87462 5.87462 4.80009 7.20013 4.80009C8.52564 4.80009 9.60017 5.87462 9.60017 7.20013Z" fill="#1A1A1A"/>
<path d="M9.60017 2.40004C9.60017 3.72555 8.52564 4.80009 7.20013 4.80009C5.87462 4.80009 4.80009 3.72555 4.80009 2.40004C4.80009 1.07454 5.87462 0 7.20013 0C8.52564 0 9.60017 1.07454 9.60017 2.40004Z" fill="#1A1A1A"/>
<path d="M14.4003 2.40004C14.4003 3.72555 13.3257 4.80009 12.0002 4.80009C10.6747 4.80009 9.60017 3.72555 9.60017 2.40004C9.60017 1.07454 10.6747 0 12.0002 0C13.3257 0 14.4003 1.07454 14.4003 2.40004Z" fill="#1A1A1A"/>
<path d="M9.60017 16.8003C9.60017 18.1258 8.52564 19.2003 7.20013 19.2003C5.87462 19.2003 4.80009 18.1258 4.80009 16.8003C4.80009 15.4748 5.87462 14.4003 7.20013 14.4003C8.52564 14.4003 9.60017 15.4748 9.60017 16.8003Z" fill="#1A1A1A"/>
<path d="M9.60017 21.6004C9.60017 22.9259 8.52564 24.0004 7.20013 24.0004C5.87462 24.0004 4.80009 22.9259 4.80009 21.6004C4.80009 20.2749 5.87462 19.2003 7.20013 19.2003C8.52564 19.2003 9.60017 20.2749 9.60017 21.6004Z" fill="#1A1A1A"/>
<path d="M14.4003 21.6004C14.4003 22.9259 13.3257 24.0004 12.0002 24.0004C10.6747 24.0004 9.60017 22.9259 9.60017 21.6004C9.60017 20.2749 10.6747 19.2003 12.0002 19.2003C13.3257 19.2003 14.4003 20.2749 14.4003 21.6004Z" fill="#1A1A1A"/>
<path d="M24.0004 12.0002C24.0004 13.3257 25.0749 14.4003 26.4005 14.4003C27.726 14.4003 28.8005 13.3257 28.8005 12.0002C28.8005 10.6747 27.726 9.60017 26.4005 9.60017C25.0749 9.60017 24.0004 10.6747 24.0004 12.0002Z" fill="#1A1A1A"/>
<path d="M28.8005 12.0002C28.8005 13.3257 29.875 14.4003 31.2005 14.4003C32.5261 14.4003 33.6006 13.3257 33.6006 12.0002C33.6006 10.6747 32.5261 9.60017 31.2005 9.60017C29.875 9.60017 28.8005 10.6747 28.8005 12.0002Z" fill="#1A1A1A"/>
<path d="M24.0004 7.20013C24.0004 8.52564 25.0749 9.60017 26.4005 9.60017C27.726 9.60017 28.8005 8.52564 28.8005 7.20013C28.8005 5.87462 27.726 4.80009 26.4005 4.80009C25.0749 4.80009 24.0004 5.87462 24.0004 7.20013Z" fill="#1A1A1A"/>
<path d="M24.0004 2.40004C24.0004 3.72555 25.0749 4.80009 26.4005 4.80009C27.726 4.80009 28.8005 3.72555 28.8005 2.40004C28.8005 1.07454 27.726 0 26.4005 0C25.0749 0 24.0004 1.07454 24.0004 2.40004Z" fill="#1A1A1A"/>
<path d="M19.2003 2.40004C19.2003 3.72555 20.2749 4.80009 21.6004 4.80009C22.9259 4.80009 24.0004 3.72555 24.0004 2.40004C24.0004 1.07454 22.9259 0 21.6004 0C20.2749 0 19.2003 1.07454 19.2003 2.40004Z" fill="#1A1A1A"/>
<path d="M24.0004 16.8003C24.0004 18.1258 25.0749 19.2003 26.4005 19.2003C27.726 19.2003 28.8005 18.1258 28.8005 16.8003C28.8005 15.4748 27.726 14.4003 26.4005 14.4003C25.0749 14.4003 24.0004 15.4748 24.0004 16.8003Z" fill="#1A1A1A"/>
<path d="M24.0004 21.6004C24.0004 22.9259 25.0749 24.0004 26.4005 24.0004C27.726 24.0004 28.8005 22.9259 28.8005 21.6004C28.8005 20.2749 27.726 19.2003 26.4005 19.2003C25.0749 19.2003 24.0004 20.2749 24.0004 21.6004Z" fill="#1A1A1A"/>
<path d="M19.2003 21.6004C19.2003 22.9259 20.2749 24.0004 21.6004 24.0004C22.9259 24.0004 24.0004 22.9259 24.0004 21.6004C24.0004 20.2749 22.9259 19.2003 21.6004 19.2003C20.2749 19.2003 19.2003 20.2749 19.2003 21.6004Z" fill="#1A1A1A"/>
<path d="M24.0004 12.0002C24.0004 13.3257 25.0749 14.4003 26.4005 14.4003C27.726 14.4003 28.8005 13.3257 28.8005 12.0002C28.8005 10.6747 27.726 9.60017 26.4005 9.60017C25.0749 9.60017 24.0004 10.6747 24.0004 12.0002Z" fill="#1A1A1A"/>
</svg>
