<svg width="609" height="213" viewBox="0 0 609 213" fill="none" xmlns="http://www.w3.org/2000/svg">
<path d="M65.2 80.2727C65.2 87.3253 63.879 93.3658 61.2369 98.3942C58.6162 103.401 55.0367 107.237 50.4983 109.9C45.9813 112.563 40.857 113.895 35.1254 113.895C29.3939 113.895 24.259 112.563 19.7206 109.9C15.2036 107.215 11.624 103.369 8.98198 98.3622C6.36124 93.3338 5.05087 87.304 5.05087 80.2727C5.05087 73.2202 6.36124 67.1903 8.98198 62.1832C11.624 57.1548 15.2036 53.3089 19.7206 50.6456C24.259 47.9822 29.3939 46.6506 35.1254 46.6506C40.857 46.6506 45.9813 47.9822 50.4983 50.6456C55.0367 53.3089 58.6162 57.1548 61.2369 62.1832C63.879 67.1903 65.2 73.2202 65.2 80.2727ZM53.2789 80.2727C53.2789 75.3082 52.5012 71.1214 50.9458 67.7124C49.4117 64.282 47.281 61.6932 44.5537 59.946C41.8264 58.1776 38.6837 57.2933 35.1254 57.2933C31.5672 57.2933 28.4244 58.1776 25.6972 59.946C22.9699 61.6932 20.8286 64.282 19.2732 67.7124C17.7391 71.1214 16.972 75.3082 16.972 80.2727C16.972 85.2372 17.7391 89.4347 19.2732 92.8651C20.8286 96.2741 22.9699 98.8629 25.6972 100.631C28.4244 102.379 31.5672 103.252 35.1254 103.252C38.6837 103.252 41.8264 102.379 44.5537 100.631C47.281 98.8629 49.4117 96.2741 50.9458 92.8651C52.5012 89.4347 53.2789 85.2372 53.2789 80.2727ZM104.617 83.6605V93.1527H78.4733V83.6605H104.617ZM82.0528 63.9091V113H70.8987V63.9091H82.0528ZM112.191 63.9091V113H101.069V63.9091H112.191ZM115.509 113L115.445 103.476H117.139C118.417 103.476 119.493 103.188 120.367 102.613C121.241 102.038 121.965 101.079 122.54 99.7365C123.116 98.3729 123.563 96.5405 123.883 94.2393C124.202 91.9382 124.426 89.0724 124.554 85.642L125.417 63.9091H161.212V113H150.026V73.4013H135.932L135.165 89.2216C134.973 93.3125 134.515 96.8601 133.79 99.8643C133.087 102.847 132.086 105.308 130.786 107.247C129.508 109.186 127.899 110.635 125.96 111.594C124.021 112.531 121.731 113 119.089 113H115.509ZM181.988 113.991C178.877 113.991 176.075 113.437 173.582 112.329C171.111 111.2 169.151 109.538 167.702 107.343C166.274 105.148 165.56 102.442 165.56 99.2251C165.56 96.4553 166.072 94.1648 167.095 92.3537C168.117 90.5426 169.513 89.0938 171.281 88.0071C173.05 86.9205 175.042 86.1001 177.258 85.5462C179.495 84.9709 181.807 84.5554 184.193 84.2997C187.07 84.0014 189.403 83.7351 191.193 83.5007C192.982 83.245 194.282 82.8615 195.092 82.3501C195.923 81.8175 196.338 80.9972 196.338 79.8892V79.6974C196.338 77.2898 195.624 75.4254 194.197 74.1044C192.769 72.7834 190.713 72.1229 188.028 72.1229C185.195 72.1229 182.947 72.7408 181.285 73.9766C179.644 75.2124 178.536 76.6719 177.961 78.3551L167.158 76.821C168.011 73.8381 169.417 71.3452 171.377 69.3423C173.337 67.3182 175.734 65.8054 178.568 64.804C181.402 63.7812 184.534 63.2699 187.965 63.2699C190.33 63.2699 192.684 63.5469 195.028 64.1009C197.372 64.6548 199.513 65.571 201.452 66.8494C203.391 68.1065 204.946 69.8217 206.118 71.995C207.311 74.1683 207.908 76.8849 207.908 80.1449V113H196.786V106.256H196.402C195.699 107.62 194.708 108.898 193.43 110.092C192.173 111.263 190.585 112.212 188.668 112.936C186.771 113.639 184.545 113.991 181.988 113.991ZM184.992 105.489C187.315 105.489 189.328 105.031 191.033 104.115C192.737 103.178 194.048 101.942 194.964 100.408C195.901 98.8736 196.37 97.201 196.37 95.3899V89.6051C196.008 89.9034 195.39 90.1804 194.516 90.4361C193.664 90.6918 192.705 90.9155 191.64 91.1072C190.575 91.299 189.52 91.4695 188.476 91.6186C187.432 91.7678 186.526 91.8956 185.759 92.0021C184.033 92.2365 182.489 92.62 181.125 93.1527C179.761 93.6854 178.685 94.4311 177.897 95.3899C177.109 96.3274 176.715 97.5419 176.715 99.0334C176.715 101.164 177.492 102.773 179.048 103.859C180.603 104.946 182.585 105.489 184.992 105.489ZM225.695 97.3395L245.351 63.9091H257.24V113H246.054V79.5376L226.462 113H214.541V63.9091H225.695V97.3395ZM242.187 47.0341H250.848C250.848 50.7628 249.495 53.7883 246.789 56.1108C244.104 58.4119 240.461 59.5625 235.859 59.5625C231.299 59.5625 227.666 58.4119 224.96 56.1108C222.276 53.7883 220.944 50.7628 220.965 47.0341H229.563C229.563 48.5682 230.031 49.9425 230.969 51.157C231.928 52.3501 233.558 52.9467 235.859 52.9467C238.117 52.9467 239.726 52.3501 240.685 51.157C241.665 49.9638 242.166 48.5895 242.187 47.0341ZM297.839 83.6605V93.1527H271.696V83.6605H297.839ZM275.275 63.9091V113H264.121V63.9091H275.275ZM305.414 63.9091V113H294.292V63.9091H305.414ZM341.874 80.9759V90.5H312.407V80.9759H341.874ZM349.043 63.9091H360.197V103.476H375.634V63.9091H386.788V103.476H402.225V63.9091H413.379V113H349.043V63.9091ZM420.069 113V63.9091H431.638V83.7244H435.857L450.623 63.9091H464.557L446.372 88.0071L464.749 113H450.75L437.295 94.495H431.638V113H420.069ZM485.701 113.959C480.907 113.959 476.752 112.904 473.236 110.795C469.721 108.685 466.993 105.734 465.054 101.942C463.137 98.1491 462.178 93.7173 462.178 88.6463C462.178 83.5753 463.137 79.1328 465.054 75.3189C466.993 71.505 469.721 68.5433 473.236 66.4339C476.752 64.3246 480.907 63.2699 485.701 63.2699C490.495 63.2699 494.65 64.3246 498.165 66.4339C501.681 68.5433 504.397 71.505 506.315 75.3189C508.254 79.1328 509.223 83.5753 509.223 88.6463C509.223 93.7173 508.254 98.1491 506.315 101.942C504.397 105.734 501.681 108.685 498.165 110.795C494.65 112.904 490.495 113.959 485.701 113.959ZM485.765 104.69C488.364 104.69 490.537 103.977 492.285 102.549C494.032 101.1 495.331 99.1612 496.184 96.7322C497.057 94.3033 497.494 91.5973 497.494 88.6143C497.494 85.6101 497.057 82.8935 496.184 80.4645C495.331 78.0142 494.032 76.0646 492.285 74.6158C490.537 73.1669 488.364 72.4425 485.765 72.4425C483.101 72.4425 480.885 73.1669 479.117 74.6158C477.37 76.0646 476.059 78.0142 475.186 80.4645C474.334 82.8935 473.907 85.6101 473.907 88.6143C473.907 91.5973 474.334 94.3033 475.186 96.7322C476.059 99.1612 477.37 101.1 479.117 102.549C480.885 103.977 483.101 104.69 485.765 104.69ZM510.655 113L510.592 103.476H512.285C513.564 103.476 514.64 103.188 515.513 102.613C516.387 102.038 517.111 101.079 517.687 99.7365C518.262 98.3729 518.709 96.5405 519.029 94.2393C519.349 91.9382 519.572 89.0724 519.7 85.642L520.563 63.9091H556.359V113H545.172V73.4013H531.078L530.311 89.2216C530.119 93.3125 529.661 96.8601 528.937 99.8643C528.234 102.847 527.232 105.308 525.932 107.247C524.654 109.186 523.045 110.635 521.106 111.594C519.168 112.531 516.877 113 514.235 113H510.655ZM577.135 113.991C574.024 113.991 571.222 113.437 568.729 112.329C566.257 111.2 564.297 109.538 562.848 107.343C561.421 105.148 560.707 102.442 560.707 99.2251C560.707 96.4553 561.218 94.1648 562.241 92.3537C563.264 90.5426 564.659 89.0938 566.428 88.0071C568.196 86.9205 570.188 86.1001 572.404 85.5462C574.642 84.9709 576.953 84.5554 579.34 84.2997C582.216 84.0014 584.549 83.7351 586.339 83.5007C588.129 83.245 589.429 82.8615 590.238 82.3501C591.069 81.8175 591.485 80.9972 591.485 79.8892V79.6974C591.485 77.2898 590.771 75.4254 589.343 74.1044C587.916 72.7834 585.86 72.1229 583.175 72.1229C580.341 72.1229 578.093 72.7408 576.431 73.9766C574.791 75.2124 573.683 76.6719 573.108 78.3551L562.305 76.821C563.157 73.8381 564.563 71.3452 566.524 69.3423C568.484 67.3182 570.881 65.8054 573.715 64.804C576.549 63.7812 579.681 63.2699 583.111 63.2699C585.476 63.2699 587.831 63.5469 590.174 64.1009C592.518 64.6548 594.659 65.571 596.598 66.8494C598.537 68.1065 600.093 69.8217 601.264 71.995C602.458 74.1683 603.054 76.8849 603.054 80.1449V113H591.932V106.256H591.549C590.845 107.62 589.855 108.898 588.576 110.092C587.319 111.263 585.732 112.212 583.814 112.936C581.918 113.639 579.691 113.991 577.135 113.991ZM580.139 105.489C582.461 105.489 584.475 105.031 586.179 104.115C587.884 103.178 589.194 101.942 590.11 100.408C591.048 98.8736 591.517 97.201 591.517 95.3899V89.6051C591.154 89.9034 590.536 90.1804 589.663 90.4361C588.811 90.6918 587.852 90.9155 586.786 91.1072C585.721 91.299 584.666 91.4695 583.622 91.6186C582.578 91.7678 581.673 91.8956 580.906 92.0021C579.18 92.2365 577.635 92.62 576.272 93.1527C574.908 93.6854 573.832 94.4311 573.044 95.3899C572.255 96.3274 571.861 97.5419 571.861 99.0334C571.861 101.164 572.639 102.773 574.194 103.859C575.75 104.946 577.731 105.489 580.139 105.489ZM39.9275 128.545V194H28.0702V128.545H39.9275ZM44.8911 138.485V128.545H97.1141V138.485H76.8833V194H65.1219V138.485H44.8911ZM127.382 156.511V166.035H97.9149V156.511H127.382ZM134.551 194V144.909H176.003V194H164.849V154.401H145.609V194H134.551ZM182.901 212.409V144.909H194.278V153.027H194.95C195.546 151.834 196.388 150.566 197.475 149.224C198.561 147.86 200.031 146.699 201.885 145.74C203.739 144.76 206.104 144.27 208.98 144.27C212.773 144.27 216.193 145.239 219.239 147.178C222.308 149.096 224.737 151.94 226.526 155.712C228.337 159.462 229.243 164.064 229.243 169.518C229.243 174.909 228.359 179.49 226.59 183.261C224.822 187.033 222.414 189.909 219.367 191.891C216.32 193.872 212.869 194.863 209.012 194.863C206.2 194.863 203.867 194.394 202.013 193.457C200.159 192.519 198.668 191.39 197.538 190.069C196.43 188.727 195.568 187.459 194.95 186.266H194.47V212.409H182.901ZM194.247 169.455C194.247 172.629 194.694 175.41 195.589 177.796C196.505 180.183 197.815 182.047 199.52 183.389C201.246 184.71 203.334 185.371 205.784 185.371C208.341 185.371 210.482 184.689 212.208 183.325C213.934 181.94 215.234 180.055 216.107 177.668C217.002 175.261 217.45 172.523 217.45 169.455C217.45 166.408 217.013 163.702 216.139 161.337C215.266 158.972 213.966 157.118 212.24 155.776C210.514 154.433 208.362 153.762 205.784 153.762C203.313 153.762 201.214 154.412 199.488 155.712C197.762 157.011 196.452 158.833 195.557 161.177C194.683 163.521 194.247 166.28 194.247 169.455ZM255.564 194.959C250.77 194.959 246.615 193.904 243.1 191.795C239.584 189.685 236.857 186.734 234.918 182.942C233 179.149 232.041 174.717 232.041 169.646C232.041 164.575 233 160.133 234.918 156.319C236.857 152.505 239.584 149.543 243.1 147.434C246.615 145.325 250.77 144.27 255.564 144.27C260.358 144.27 264.513 145.325 268.028 147.434C271.544 149.543 274.261 152.505 276.178 156.319C278.117 160.133 279.087 164.575 279.087 169.646C279.087 174.717 278.117 179.149 276.178 182.942C274.261 186.734 271.544 189.685 268.028 191.795C264.513 193.904 260.358 194.959 255.564 194.959ZM255.628 185.69C258.227 185.69 260.401 184.977 262.148 183.549C263.895 182.1 265.195 180.161 266.047 177.732C266.921 175.303 267.357 172.597 267.357 169.614C267.357 166.61 266.921 163.893 266.047 161.464C265.195 159.014 263.895 157.065 262.148 155.616C260.401 154.167 258.227 153.442 255.628 153.442C252.965 153.442 250.749 154.167 248.98 155.616C247.233 157.065 245.923 159.014 245.049 161.464C244.197 163.893 243.771 166.61 243.771 169.614C243.771 172.597 244.197 175.303 245.049 177.732C245.923 180.161 247.233 182.1 248.98 183.549C250.749 184.977 252.965 185.69 255.628 185.69ZM306.183 210.683V128.545H317.784V210.683H306.183ZM306.183 194.959C302.582 194.959 299.29 194.352 296.307 193.137C293.324 191.923 290.746 190.197 288.573 187.96C286.421 185.722 284.748 183.059 283.555 179.969C282.383 176.859 281.797 173.418 281.797 169.646C281.797 165.875 282.383 162.434 283.555 159.323C284.748 156.212 286.421 153.538 288.573 151.301C290.746 149.043 293.324 147.306 296.307 146.092C299.29 144.877 302.582 144.27 306.183 144.27H308.644V194.959H306.183ZM306.183 185.626H307.621V153.602H306.183C304.137 153.602 302.326 154.028 300.75 154.881C299.194 155.712 297.884 156.873 296.818 158.364C295.774 159.835 294.975 161.539 294.421 163.478C293.889 165.396 293.622 167.452 293.622 169.646C293.622 172.565 294.102 175.239 295.061 177.668C296.019 180.076 297.426 182.004 299.279 183.453C301.154 184.902 303.456 185.626 306.183 185.626ZM317.784 194.959H315.323V144.27H317.784C321.385 144.27 324.677 144.877 327.66 146.092C330.643 147.306 333.21 149.043 335.362 151.301C337.536 153.538 339.208 156.212 340.38 159.323C341.573 162.434 342.17 165.875 342.17 169.646C342.17 173.418 341.573 176.859 340.38 179.969C339.208 183.059 337.536 185.722 335.362 187.96C333.21 190.197 330.643 191.923 327.66 193.137C324.677 194.352 321.385 194.959 317.784 194.959ZM317.784 185.626C319.851 185.626 321.662 185.211 323.218 184.38C324.773 183.549 326.073 182.398 327.117 180.928C328.182 179.458 328.981 177.764 329.514 175.847C330.046 173.908 330.313 171.841 330.313 169.646C330.313 166.727 329.844 164.053 328.907 161.624C327.969 159.195 326.563 157.256 324.688 155.808C322.834 154.337 320.533 153.602 317.784 153.602H316.346V185.626H317.784ZM368.667 194.959C363.745 194.959 359.494 193.936 355.915 191.891C352.356 189.824 349.619 186.905 347.701 183.134C345.783 179.341 344.824 174.877 344.824 169.742C344.824 164.692 345.783 160.261 347.701 156.447C349.64 152.612 352.346 149.629 355.819 147.498C359.292 145.346 363.372 144.27 368.06 144.27C371.085 144.27 373.94 144.76 376.625 145.74C379.331 146.699 381.717 148.19 383.784 150.214C385.872 152.239 387.513 154.817 388.706 157.949C389.899 161.06 390.496 164.767 390.496 169.071V172.619H350.258V164.82H379.405C379.384 162.604 378.905 160.634 377.967 158.908C377.03 157.161 375.719 155.786 374.036 154.785C372.374 153.783 370.435 153.283 368.219 153.283C365.854 153.283 363.777 153.858 361.987 155.009C360.197 156.138 358.802 157.629 357.8 159.483C356.82 161.315 356.32 163.329 356.298 165.523V172.331C356.298 175.186 356.82 177.636 357.864 179.682C358.908 181.706 360.368 183.261 362.243 184.348C364.118 185.413 366.312 185.946 368.827 185.946C370.51 185.946 372.033 185.712 373.397 185.243C374.761 184.753 375.943 184.039 376.945 183.102C377.946 182.164 378.702 181.003 379.214 179.618L390.016 180.832C389.334 183.687 388.035 186.18 386.117 188.311C384.221 190.42 381.792 192.061 378.83 193.233C375.869 194.384 372.481 194.959 368.667 194.959ZM416.697 194.959C411.796 194.959 407.588 193.883 404.073 191.731C400.578 189.579 397.883 186.607 395.987 182.814C394.112 179 393.174 174.611 393.174 169.646C393.174 164.661 394.133 160.261 396.051 156.447C397.968 152.612 400.674 149.629 404.168 147.498C407.684 145.346 411.839 144.27 416.633 144.27C420.617 144.27 424.144 145.005 427.212 146.475C430.301 147.924 432.762 149.98 434.595 152.643C436.427 155.286 437.471 158.375 437.727 161.912H426.668C426.221 159.547 425.156 157.576 423.472 155.999C421.81 154.401 419.584 153.602 416.793 153.602C414.428 153.602 412.35 154.241 410.56 155.52C408.771 156.777 407.375 158.588 406.374 160.953C405.394 163.318 404.903 166.152 404.903 169.455C404.903 172.8 405.394 175.676 406.374 178.084C407.354 180.47 408.728 182.313 410.497 183.613C412.286 184.891 414.385 185.531 416.793 185.531C418.497 185.531 420.021 185.211 421.363 184.572C422.727 183.911 423.867 182.963 424.783 181.727C425.699 180.491 426.328 178.989 426.668 177.221H437.727C437.45 180.694 436.427 183.773 434.658 186.457C432.89 189.121 430.482 191.209 427.435 192.722C424.389 194.213 420.809 194.959 416.697 194.959ZM463.64 194.959C458.74 194.959 454.532 193.883 451.016 191.731C447.522 189.579 444.826 186.607 442.93 182.814C441.055 179 440.117 174.611 440.117 169.646C440.117 164.661 441.076 160.261 442.994 156.447C444.911 152.612 447.617 149.629 451.112 147.498C454.627 145.346 458.782 144.27 463.576 144.27C467.561 144.27 471.087 145.005 474.155 146.475C477.245 147.924 479.706 149.98 481.538 152.643C483.37 155.286 484.414 158.375 484.67 161.912H473.612C473.164 159.547 472.099 157.576 470.416 155.999C468.754 154.401 466.527 153.602 463.736 153.602C461.371 153.602 459.294 154.241 457.504 155.52C455.714 156.777 454.318 158.588 453.317 160.953C452.337 163.318 451.847 166.152 451.847 169.455C451.847 172.8 452.337 175.676 453.317 178.084C454.297 180.47 455.671 182.313 457.44 183.613C459.23 184.891 461.328 185.531 463.736 185.531C465.441 185.531 466.964 185.211 468.306 184.572C469.67 183.911 470.81 182.963 471.726 181.727C472.642 180.491 473.271 178.989 473.612 177.221H484.67C484.393 180.694 483.37 183.773 481.602 186.457C479.833 189.121 477.426 191.209 474.379 192.722C471.332 194.213 467.752 194.959 463.64 194.959ZM500.324 178.339L519.98 144.909H531.869V194H520.683V160.538L501.091 194H489.17V144.909H500.324V178.339ZM549.904 178.339L569.56 144.909H581.449V194H570.263V160.538L550.671 194H538.75V144.909H549.904V178.339ZM566.396 128.034H575.057C575.057 131.763 573.704 134.788 570.998 137.111C568.313 139.412 564.67 140.562 560.068 140.562C555.508 140.562 551.875 139.412 549.169 137.111C546.485 134.788 545.153 131.763 545.174 128.034H553.772C553.772 129.568 554.24 130.942 555.178 132.157C556.137 133.35 557.767 133.947 560.068 133.947C562.326 133.947 563.935 133.35 564.894 132.157C565.874 130.964 566.375 129.589 566.396 128.034Z" fill="#1A1A1A"/>
<path d="M502.288 30.5479C505.346 29.5825 508.646 31.2336 509.62 34.3146C510.593 37.3957 508.839 40.643 505.782 41.609C504.996 41.8571 504.194 41.9315 503.42 41.8542C503.917 42.4287 504.309 43.112 504.553 43.8855C504.993 45.2788 504.873 46.7051 504.329 47.94C505.484 48.6387 506.402 49.7385 506.842 51.1323C507.282 52.5258 507.162 53.9526 506.618 55.1877C507.773 55.8864 508.69 56.9855 509.131 58.379C509.375 59.1523 509.446 59.9363 509.37 60.6918C509.959 60.1839 510.659 59.7849 511.444 59.5368C514.502 58.5713 517.802 60.2223 518.776 63.3034C519.749 66.3845 517.995 69.6319 514.938 70.5978C513.536 71.0406 512.082 70.9324 510.826 70.3891C510.109 71.5551 508.983 72.4786 507.581 72.9213C504.524 73.887 501.222 72.236 500.249 69.155C499.809 67.7615 499.928 66.334 500.471 65.0989C499.317 64.4001 498.4 63.3005 497.96 61.9073C497.716 61.1341 497.643 60.3503 497.72 59.5948C497.131 60.1024 496.433 60.5021 495.648 60.7502C492.59 61.7159 489.288 60.0651 488.315 56.9838C487.342 53.9026 489.096 50.6549 492.154 49.6892C492.939 49.4412 493.74 49.3666 494.514 49.4436C494.017 48.8694 493.626 48.1867 493.382 47.4138C492.942 46.0204 493.061 44.5928 493.604 43.3577C492.45 42.659 491.533 41.5594 491.093 40.1661C490.12 37.085 491.874 33.8373 494.932 32.8715C496.333 32.4288 497.786 32.5379 499.042 33.0808C499.759 31.9142 500.886 30.9908 502.288 30.5479ZM524.356 23.5779C527.414 22.6122 530.715 24.2631 531.689 27.3442C532.129 28.7377 532.009 30.1646 531.465 31.3997C532.62 32.0984 533.537 33.1983 533.978 34.5919C534.222 35.3649 534.293 36.1485 534.216 36.9038C534.805 36.396 535.505 35.9971 536.29 35.749C539.348 34.7833 542.649 36.4341 543.622 39.5154C544.595 42.5966 542.841 45.8443 539.784 46.81C538.998 47.0581 538.197 47.1322 537.422 47.055C537.919 47.6293 538.311 48.3121 538.555 49.0854C538.995 50.4788 538.875 51.9058 538.332 53.1408C539.487 53.8395 540.404 54.9394 540.844 56.3331C541.818 59.4142 540.063 62.6619 537.006 63.6277C535.604 64.0705 534.151 63.9619 532.895 63.4187C532.178 64.585 531.051 65.5085 529.649 65.9513C526.592 66.9167 523.291 65.2656 522.318 62.1846C521.345 59.1035 523.098 55.8561 526.156 54.8902C526.941 54.6422 527.743 54.5673 528.516 54.6444C528.02 54.0701 527.629 53.3868 527.384 52.6137C526.944 51.2203 527.063 49.7935 527.607 48.5585C526.453 47.8598 525.536 46.7602 525.096 45.3669C524.655 43.9733 524.774 42.546 525.318 41.3108C524.164 40.6122 523.247 39.5132 522.807 38.1202C522.562 37.3468 522.49 36.5624 522.567 35.8068C521.977 36.3145 521.279 36.7143 520.493 36.9624C517.436 37.9279 514.135 36.2769 513.162 33.1958C512.189 30.1147 513.942 26.8673 517 25.9014C518.402 25.4586 519.854 25.5673 521.111 26.1104C521.827 24.9441 522.954 24.0207 524.356 23.5779Z" fill="#207443" stroke="white" stroke-width="4"/>
<path d="M72.7376 33.9988L75.0912 9.37539L63.4596 31.0032L36.2609 30.3324L59.8044 42.3238L57.9963 67.3142L69.0823 45.3195L94.2293 45.2937L72.7376 33.9988Z" fill="white" stroke="#207443" stroke-width="4"/>
</svg>
